  <svg width="14" height="15" viewBox="0 0 14 15" fill="none" xmlns="http://www.w3.org/2000/svg">
    <g clip-path="url(#clip0_2795_1012)">
      <path
        d="M8.96475 5.16921L9.19995 3.89801L9.20891 3.85041C9.31587 3.28537 9.44243 2.60721 9.36739 2.02033C9.32987 1.73193 9.24587 1.48385 9.10083 1.28785C8.95803 1.09577 8.74411 0.935608 8.41203 0.841528C7.90803 0.699288 7.54683 0.812968 7.21643 1.07841C6.86195 1.36289 6.55059 1.81481 6.17931 2.36025L6.17651 2.36417C5.95307 2.69177 5.71171 3.04569 5.43731 3.38505C5.128 3.76455 4.80888 4.13596 4.48027 4.49889V14.1292H8.75307C9.57571 14.1292 10.6476 13.6958 11.5962 12.8933C12.5392 12.0953 13.3311 10.9574 13.6189 9.59153C14.1884 6.89009 12.2419 5.16921 10.6061 5.16921H8.96475ZM3.08027 14.1292V5.16921H0.801073C0.662949 5.16921 0.530481 5.22408 0.432812 5.32175C0.335143 5.41942 0.280273 5.55188 0.280273 5.69001V13.6084C0.280273 13.8962 0.513233 14.1292 0.801073 14.1292H3.08027Z"
        fill="white"
      />
    </g>
    <defs>
      <clipPath id="clip0_2795_1012">
        <rect width="14" height="14" fill="white" transform="translate(0 0.5)" />
      </clipPath>
    </defs>
  </svg>