<svg width="15" height="13" viewBox="0 0 15 13" fill="none" xmlns="http://www.w3.org/2000/svg">
  <path
    d="M12.172 4.65646C11.7208 3.47137 10.8555 2.50433 9.73638 1.91685C8.5871 1.31355 7.25442 1.15566 5.97398 1.49776C3.20333 2.23803 1.55912 5.07775 2.30151 7.84047C3.04391 10.6032 5.89177 12.2427 8.66243 11.5024C9.98663 11.1486 11.0904 10.3038 11.7786 9.1531C11.8444 9.04315 11.906 8.93087 11.9635 8.81649C12.1024 8.53983 12.4224 8.39053 12.7126 8.49831C13.0035 8.60638 13.1538 8.93146 13.0198 9.21142C12.9356 9.38723 12.8433 9.55916 12.7431 9.72663C11.9067 11.1252 10.5625 12.154 8.95307 12.584C5.58336 13.4843 2.11971 11.4903 1.2168 8.13028C0.313891 4.77022 2.31363 1.3165 5.68334 0.416178C7.23952 0.000394627 8.86246 0.192686 10.2595 0.92602C11.5177 1.58649 12.5132 2.64347 13.0898 3.93889L13.7593 1.85048C13.8538 1.55561 14.1692 1.39297 14.4643 1.48701C14.76 1.58126 14.9231 1.89763 14.8284 2.1932L13.5739 6.10651L9.54487 5.2325C9.2424 5.16688 9.05053 4.86831 9.11651 4.56592C9.18237 4.26404 9.48032 4.07256 9.78229 4.13807L12.172 4.65646Z"
    fill="white"
    stroke="white"
    stroke-width="0.2"
  />
</svg>
